<?xml version="1.0" encoding="UTF-8"?>
<svg version="1.1" xmlns="http://www.w3.org/2000/svg" width="115" height="111">
<path d="M0 0 C37.95 0 75.9 0 115 0 C115 36.63 115 73.26 115 111 C77.05 111 39.1 111 0 111 C0 74.37 0 37.74 0 0 Z " fill="#0F1320" transform="translate(0,0)"/>
<path d="M0 0 C2.3125 -0.3125 2.3125 -0.3125 5 0 C8.52847183 4.24079243 9.55638314 9.87542015 10.9296875 15.1171875 C12.527147 20.68727656 14.92093942 24.11768367 20 27.22265625 C26.5216871 29.96125532 33.21067561 32.02721332 40 34 C40.125 36.375 40.125 36.375 40 39 C36.79832554 42.20167446 32.30047846 42.83133333 28.02929688 44.05664062 C23.9410009 45.27064896 20.63032378 46.69833446 17 49 C16.34 49 15.68 49 15 49 C12.99910712 52.64051343 11.77006239 56.5003066 10.5 60.4375 C6.62718341 72.37281659 6.62718341 72.37281659 5 74 C3.33382885 74.04063832 1.66611905 74.042721 0 74 C-0.48919922 72.37191406 -0.48919922 72.37191406 -0.98828125 70.7109375 C-1.42940906 69.26553999 -1.87083096 67.82023222 -2.3125 66.375 C-2.52583984 65.66214844 -2.73917969 64.94929688 -2.95898438 64.21484375 C-4.28509513 59.90003561 -5.89903536 56.01360753 -8 52 C-8.33 51.01 -8.66 50.02 -9 49 C-14.1813277 46.39406701 -20.14531534 44.96698867 -25.66992188 43.2109375 C-26.84458008 42.82808594 -26.84458008 42.82808594 -28.04296875 42.4375 C-28.75477295 42.20933594 -29.46657715 41.98117188 -30.19995117 41.74609375 C-32 41 -32 41 -34 39 C-34.125 36.375 -34.125 36.375 -34 34 C-33.39003174 33.8141333 -32.78006348 33.6282666 -32.15161133 33.43676758 C-29.36664411 32.57812448 -26.58980242 31.69560538 -23.8125 30.8125 C-22.37293945 30.37454102 -22.37293945 30.37454102 -20.90429688 29.92773438 C-14.53045643 27.87663693 -10.11053926 25.89067461 -6.77734375 19.74609375 C-6.36162109 18.60333984 -6.36162109 18.60333984 -5.9375 17.4375 C-5.62167969 16.58285156 -5.30585937 15.72820313 -4.98046875 14.84765625 C-3.28069297 9.91085727 -1.6049564 4.96853525 0 0 Z " fill="#BC82F8" transform="translate(40,20)"/>
<path d="M0 0 C1.98 0 3.96 0 6 0 C6.31453125 0.90363281 6.6290625 1.80726563 6.953125 2.73828125 C7.38109375 3.91777344 7.8090625 5.09726563 8.25 6.3125 C8.66765625 7.48425781 9.0853125 8.65601563 9.515625 9.86328125 C11.50188994 14.06057268 13.28978674 15.37033057 17.578125 16.94921875 C18.45984375 17.19285156 19.3415625 17.43648437 20.25 17.6875 C21.14203125 17.93886719 22.0340625 18.19023437 22.953125 18.44921875 C23.62859375 18.63097656 24.3040625 18.81273438 25 19 C25 20.98 25 22.96 25 25 C24.33613281 25.15855469 23.67226562 25.31710938 22.98828125 25.48046875 C17.40754596 26.9550864 13.4934496 28.13034298 10 33 C9.05005655 35.31273152 8.27235213 37.61017723 7.578125 40.01171875 C7 42 7 42 6 44 C4.02 44 2.04 44 0 44 C-0.24234375 43.25234375 -0.4846875 42.5046875 -0.734375 41.734375 C-1.23710938 40.25710937 -1.23710938 40.25710937 -1.75 38.75 C-2.07484375 37.77546875 -2.3996875 36.8009375 -2.734375 35.796875 C-4.54193449 31.80239169 -6.44059745 29.62040747 -10.54296875 27.98828125 C-11.85201172 27.65376953 -11.85201172 27.65376953 -13.1875 27.3125 C-17.93055556 26.06944444 -17.93055556 26.06944444 -19 25 C-19.04080783 23.00041636 -19.04254356 20.99954746 -19 19 C-18.154375 18.731875 -17.30875 18.46375 -16.4375 18.1875 C-9.64370252 16.1522369 -9.64370252 16.1522369 -4.25 11.875 C-2.56402047 7.99724707 -1.24099196 4.03982489 0 0 Z " fill="#BC81F7" transform="translate(85,5)"/>
<path d="M0 0 C1.9375 0.0625 1.9375 0.0625 4 1 C5.85883216 3.60236503 7.02167848 6.05901364 8.125 9.0625 C10.5342295 12.83695955 12.88115194 13.49532612 17.0390625 14.84765625 C19 16 19 16 19.7734375 18.62109375 C19.84820312 19.40613281 19.92296875 20.19117187 20 21 C18.37750059 21.83819158 16.75191503 22.6704116 15.125 23.5 C14.22007813 23.9640625 13.31515625 24.428125 12.3828125 24.90625 C10 26 10 26 8 26 C7.79503906 26.71027344 7.59007813 27.42054687 7.37890625 28.15234375 C7.10949219 29.07144531 6.84007813 29.99054688 6.5625 30.9375 C6.29566406 31.85402344 6.02882813 32.77054688 5.75390625 33.71484375 C5 36 5 36 4 37 C2.33382885 37.04063832 0.66611905 37.042721 -1 37 C-1.30292969 36.31292969 -1.60585937 35.62585938 -1.91796875 34.91796875 C-4.96051583 28.06513567 -4.96051583 28.06513567 -11 24 C-12.093125 23.443125 -13.18625 22.88625 -14.3125 22.3125 C-15.199375 21.879375 -16.08625 21.44625 -17 21 C-16.80078125 18.640625 -16.80078125 18.640625 -16 16 C-13.85546875 14.734375 -13.85546875 14.734375 -11.1875 13.75 C-7.02240083 11.89026243 -5.26882239 10.5481858 -3.5 6.3125 C-3.11328125 5.16201172 -3.11328125 5.16201172 -2.71875 3.98828125 C-2 2 -2 2 0 0 Z " fill="#BC81F7" transform="translate(79,72)"/>
</svg>
